<svg width="27" height="26" viewBox="0 0 27 26" fill="none" xmlns="http://www.w3.org/2000/svg">
<path d="M25.5942 15.1304L24.2709 13.8071C23.7472 13.2839 22.8353 13.2839 22.3111 13.8071L15.1657 20.9531L14.1809 24.5648L13.9399 24.8058C13.7598 24.986 13.7593 25.2766 13.9371 25.4581L13.9348 25.4674L13.9436 25.4651C14.0337 25.5533 14.1507 25.5988 14.2682 25.5988C14.387 25.5988 14.5059 25.5533 14.5964 25.4628L14.8379 25.2214L18.4491 24.2366L25.5946 17.0906C26.1351 16.5502 26.1351 15.6708 25.5942 15.1304ZM16.2377 21.1945L20.9935 16.4392L22.9635 18.4088L18.2077 23.1645L16.2377 21.1945ZM15.8185 22.0883L17.3135 23.5833L15.2576 24.1442L15.8185 22.0883ZM24.9377 16.4341L23.6195 17.7523L21.6495 15.7827L22.9677 14.4646C23.1408 14.2914 23.4422 14.2919 23.6149 14.4641L24.9381 15.7874C25.1164 15.9652 25.1164 16.2558 24.9377 16.4341Z" fill="#7B8BB2"/>
<path d="M12.5359 20.3663C12.2796 20.3663 12.0716 20.1587 12.0716 19.902C12.0716 19.6452 12.2796 19.4377 12.5359 19.4377H14.7116L20.7474 13.4019H12.5359C12.2796 13.4019 12.0716 13.1943 12.0716 12.9376C12.0716 12.6808 12.2796 12.4733 12.5359 12.4733H20.8932C21.1068 12.4733 21.2791 12.6204 21.3334 12.8168C21.858 12.2954 22.5531 12.009 23.2918 12.009C23.9501 12.009 24.5732 12.2374 25.0719 12.6557V6.0544C25.0719 2.93713 22.5359 0.401154 19.4186 0.401154H5.65324C2.53597 0.401618 0 2.93713 0 6.0544V19.8198C0 22.9371 2.53597 25.473 5.65324 25.473H12.4895L13.8824 20.3658H12.5359V20.3663ZM12.5359 5.97315H20.8932C21.1495 5.97315 21.3575 6.18069 21.3575 6.43744C21.3575 6.69419 21.1495 6.90173 20.8932 6.90173H12.5359C12.2796 6.90173 12.0716 6.69419 12.0716 6.43744C12.0716 6.18069 12.2796 5.97315 12.5359 5.97315ZM9.60531 17.8823L6.42165 21.5962C6.33018 21.703 6.20018 21.7587 6.06879 21.7587C5.97175 21.7587 5.87378 21.7285 5.79021 21.6658L3.66792 20.0738C3.4627 19.9201 3.42138 19.629 3.57506 19.4242C3.72921 19.219 4.01986 19.1781 4.22508 19.3314L5.99961 20.662L8.90052 17.2787C9.0672 17.0837 9.3611 17.0614 9.55517 17.2286C9.74971 17.3948 9.772 17.6877 9.60531 17.8823ZM9.60531 10.9179L6.42165 14.6322C6.33018 14.739 6.20018 14.7947 6.06879 14.7947C5.97175 14.7947 5.87378 14.7646 5.79021 14.7019L3.66792 13.1098C3.4627 12.9561 3.42138 12.665 3.57506 12.4603C3.72921 12.255 4.01986 12.2137 4.22508 12.3674L5.99961 13.6981L8.90052 10.3143C9.0672 10.1193 9.3611 10.097 9.55517 10.2642C9.74971 10.4304 9.772 10.7233 9.60531 10.9179ZM9.60531 4.41776L6.42165 8.13211C6.33018 8.2389 6.20018 8.29462 6.06879 8.29462C5.97175 8.29462 5.87378 8.26444 5.79021 8.20176L3.66792 6.60969C3.4627 6.45601 3.42138 6.1649 3.57506 5.96015C3.72921 5.75493 4.01986 5.71361 4.22508 5.86729L5.99961 7.19795L8.90052 3.81418C9.0672 3.61918 9.3611 3.59689 9.55517 3.76404C9.74971 3.93025 9.772 4.22322 9.60531 4.41776Z" fill="#7B8BB2"/>
</svg>
