<svg width="27" height="28" viewBox="0 0 27 28" fill="none" xmlns="http://www.w3.org/2000/svg">
<path d="M25.6049 2H4.74109C2.49146 2 0.661743 4.0313 0.661743 6.52877V26.8261C0.661743 27.7874 1.641 28.3293 2.33223 27.7811L8.14265 23.1788C8.6302 22.7932 9.2037 22.5891 9.80257 22.5891H22.5824C24.832 22.5891 26.6617 20.5578 26.6617 18.0603V3.17326C26.6617 2.52562 26.1883 2 25.6049 2ZM20.4716 16.2128H8.26102C7.67765 16.2128 7.20419 15.688 7.20419 15.0396C7.20419 14.3919 7.67765 13.8663 8.26102 13.8663H20.4716C21.0549 13.8663 21.5284 14.3919 21.5284 15.0396C21.5284 15.688 21.0549 16.2128 20.4716 16.2128ZM20.4716 10.7376H8.26102C7.67765 10.7376 7.20419 10.2128 7.20419 9.56437C7.20419 8.91674 7.67765 8.39112 8.26102 8.39112H20.4716C21.0549 8.39112 21.5284 8.91674 21.5284 9.56437C21.5284 10.2128 21.0549 10.7376 20.4716 10.7376Z" fill="#7B8BB2"/>
</svg>
