<svg width="26" height="28" viewBox="0 0 26 28" fill="none" xmlns="http://www.w3.org/2000/svg">
<g clip-path="url(#clip0)">
<path d="M12.8147 14.5243C14.5353 14.5243 16.0253 13.9072 17.2426 12.6896C18.46 11.4723 19.0771 9.98274 19.0771 8.26194C19.0771 6.54173 18.46 5.05202 17.2424 3.83427C16.0249 2.61711 14.5351 2 12.8147 2C11.0939 2 9.6044 2.61711 8.38704 3.83447C7.16968 5.05182 6.55237 6.54153 6.55237 8.26194C6.55237 9.98274 7.16968 11.4725 8.38724 12.6898C9.6048 13.907 11.0945 14.5243 12.8147 14.5243Z" fill="#7B8BB2"/>
<path d="M23.7722 21.9926C23.7371 21.486 23.666 20.9334 23.5615 20.3498C23.456 19.7618 23.3201 19.206 23.1574 18.698C22.9894 18.1729 22.7609 17.6544 22.4784 17.1575C22.1853 16.6418 21.8409 16.1927 21.4545 15.8231C21.0504 15.4365 20.5557 15.1257 19.9836 14.899C19.4135 14.6734 18.7817 14.5592 18.1059 14.5592C17.8405 14.5592 17.5838 14.6681 17.0881 14.9908C16.783 15.1898 16.4261 15.4199 16.0278 15.6744C15.6872 15.8914 15.2258 16.0947 14.6559 16.2788C14.0999 16.4587 13.5354 16.5499 12.9782 16.5499C12.421 16.5499 11.8566 16.4587 11.3 16.2788C10.7307 16.0949 10.2693 15.8916 9.92912 15.6746C9.53458 15.4224 9.17752 15.1923 8.86787 14.9906C8.37276 14.6679 8.11588 14.559 7.85046 14.559C7.17444 14.559 6.54285 14.6734 5.97295 14.8992C5.40126 15.1255 4.90634 15.4363 4.50188 15.8233C4.11566 16.1931 3.7711 16.642 3.47832 17.1575C3.19604 17.6544 2.96753 18.1727 2.79932 18.6982C2.63686 19.2062 2.50098 19.7618 2.39545 20.3498C2.29091 20.9326 2.21989 21.4854 2.18478 21.9932C2.15027 22.4907 2.13281 23.0071 2.13281 23.5286C2.13281 24.8858 2.56425 25.9845 3.41504 26.7948C4.25531 27.5944 5.36714 28.0001 6.71919 28.0001H19.2384C20.5904 28.0001 21.7018 27.5946 22.5423 26.7948C23.3933 25.9851 23.8247 24.8862 23.8247 23.5284C23.8245 23.0045 23.8069 22.4877 23.7722 21.9926Z" fill="#7B8BB2"/>
</g>
<defs>
<clipPath id="clip0">
<rect width="26" height="26" fill="white" transform="translate(0 2)"/>
</clipPath>
</defs>
</svg>
