<svg width="180" height="180" viewBox="0 0 180 180" fill="none" xmlns="http://www.w3.org/2000/svg">
<g clip-path="url(#clip0)">
<path d="M90 180C139.706 180 180 139.706 180 90C180 40.2944 139.706 0 90 0C40.2944 0 0 40.2944 0 90C0 139.706 40.2944 180 90 180Z" fill="#52FFAC"/>
<path d="M67.0032 130.599L113.281 176.877C151.609 166.656 180 131.735 180 89.9999C180 89.1482 180 88.2964 180 87.4447L143.659 53.9431L67.0032 130.599Z" fill="#1FD77F"/>
<path d="M92.2713 110.158C96.246 114.132 96.246 120.946 92.2713 124.921L84.0378 133.155C80.0631 137.129 73.2492 137.129 69.2744 133.155L33.2176 96.8139C29.2429 92.8391 29.2429 86.0252 33.2176 82.0504L41.4511 73.817C45.4258 69.8422 52.2397 69.8422 56.2145 73.817L92.2713 110.158Z" fill="white"/>
<path d="M123.785 47.4132C127.76 43.4384 134.574 43.4384 138.549 47.4132L146.782 55.6466C150.757 59.6214 150.757 66.4353 146.782 70.41L84.3217 132.587C80.3469 136.561 73.533 136.561 69.5583 132.587L61.3248 124.353C57.3501 120.378 57.3501 113.565 61.3248 109.59L123.785 47.4132Z" fill="white"/>
</g>
<defs>
<clipPath id="clip0">
<rect width="180" height="180" fill="white"/>
</clipPath>
</defs>
</svg>
