<svg width="400" height="400" viewBox="0 0 400 400" fill="none" xmlns="http://www.w3.org/2000/svg">
<circle cx="200" cy="200" r="200" fill="#01356E"/>
<path d="M94.6436 164.383V206.85C130.366 222.088 165.838 226.314 179.109 226.522V245.414C178.11 253.782 184.938 256.707 188.476 257.124H213.145C218.736 256.674 220.17 251.678 220.17 249.005V226.522C259.765 227.771 293.603 214.657 305.573 207.943C305.573 205.029 305.635 193.736 305.885 171.878C306.01 148.771 285.952 144.139 275.908 144.711C229.486 144.503 133.207 144.056 119.468 143.931C102.481 143.681 95.8405 157.462 94.6436 164.383Z" fill="white"/>
<path d="M102.918 165.945V202.479C142.574 215.593 178.328 219.653 179.421 219.809C179.421 211.69 183.584 208.828 185.666 208.412C192.506 205.621 209.836 205.777 213.925 208.412C220.482 212.003 219.546 215.906 220.014 220.121C263.855 217.873 289.907 208.047 297.453 203.415C297.401 200.241 297.391 189.676 297.766 172.814C299.015 154.953 282.361 151.841 273.878 152.518C232.66 152.258 145.478 151.706 126.493 151.581C107.508 151.456 102.866 161.105 102.918 165.945Z" fill="#01356E"/>
<path d="M166.15 129.411V144.555V147.99H158.031C157.979 144.451 157.906 135.312 158.031 127.069C160.061 115.359 171.615 110.207 178.64 108.334C187.071 106.772 204.245 105.835 218.453 108.334C236.689 111.581 241.664 122.801 241.872 128.006V148.458H233.441C233.545 144.503 233.691 134.563 233.441 126.444C229.382 111.3 205.182 113.486 190.038 113.486C171.427 114.985 166.358 124.727 166.15 129.411Z" fill="white"/>
<path d="M94.7995 221.214L94.4872 229.333V264.305C92.239 286.413 110.933 292.252 120.561 292.408C170.522 292.617 273.16 293.033 284.027 293.033C301.388 290.035 304.896 276.379 304.479 269.926C304.531 254.573 304.604 223.244 304.479 220.746C304.323 217.623 302.294 216.842 300.42 216.842C297.547 216.842 296.725 219.445 296.673 220.746C296.569 231.466 296.361 255.906 296.361 267.896C295.362 280.137 287.722 284.342 284.027 284.914C234.326 284.706 132.052 284.259 120.561 284.134C109.07 284.633 103.699 275.495 102.45 270.863C102.502 255.51 102.575 223.868 102.45 220.121C102.294 215.437 99.4833 215.75 97.2975 215.906C95.424 216.78 94.8515 219.809 94.7995 221.214Z" fill="white"/>
<path d="M189.383 214.208C185.294 217.349 185.562 221.943 185.666 225.742V242.916C185.167 248.037 189.726 250.046 192.067 250.41C196.439 250.514 205.963 250.66 209.085 250.41C212.208 250.16 214.081 247.151 214.081 244.789C214.134 239.325 214.206 227.085 214.081 221.839C214.081 216.237 211.855 214.695 210.461 213.895C206.684 211.729 194.662 210.948 189.383 214.208Z" fill="#01356E"/>
</svg>
