<svg width="24" height="22" viewBox="0 0 24 22" fill="none" xmlns="http://www.w3.org/2000/svg">
<path d="M23.5495 10.9611C23.549 10.7707 23.4942 10.5843 23.3915 10.424C23.2888 10.2637 23.1424 10.136 22.9696 10.056L1.75642 0.156486C1.57138 0.0732135 1.36537 0.0482073 1.16578 0.0847893C0.966179 0.121371 0.782434 0.21781 0.638946 0.361298C0.495459 0.504785 0.39902 0.68853 0.362438 0.888127C0.325856 1.08772 0.350861 1.29373 0.434134 1.47878L4.0828 9.9782L13.0631 9.96406L13.0631 11.9581L4.05452 11.9581L0.41292 20.4646C0.333751 20.6486 0.311647 20.8521 0.34947 21.0487C0.387292 21.2454 0.483298 21.4262 0.625053 21.5677C0.770879 21.7076 0.955698 21.8001 1.15514 21.833C1.35459 21.8658 1.5593 21.8374 1.74228 21.7515L22.9555 11.852C23.1288 11.7751 23.2766 11.6505 23.3818 11.4928C23.4869 11.335 23.5451 11.1506 23.5495 10.9611Z" fill="white"/>
</svg>
